<svg xmlns="http://www.w3.org/2000/svg" viewBox="0 0 512 512" width="50" height="50">
  <style>
    @keyframes blink {
      0% { fill: red; }
      50% { fill: transparent; }
      100% { fill: red; }
    }
    .blinking {
      animation: blink 1s infinite;
    }
  </style>
  <!--!Font Awesome Free 6.5.2 by @fontawesome - https://fontawesome.com License - https://fontawesome.com/license/free Copyright 2024 Fonticons, Inc.-->
  <path d="M256 512A256 256 0 1 0 256 0a256 256 0 1 0 0 512zm0-384c13.3 0 24 10.7 24 24V264c0 13.3-10.7 24-24 24s-24-10.7-24-24V152c0-13.3 10.7-24 24-24zM224 352a32 32 0 1 1 64 0 32 32 0 1 1 -64 0z" class="blinking"/>
</svg>
